PathFileType	4	(X/Y/Z)	C:/Users/opensim2020/Desktop/walking_exp_matlab/subject02_walking15_straight_02.trc																																																																																																																												
DataRate	CameraRate	NumFrames	NumMarkers	Units	OrigDataRate	OrigDataStartFrame	OrigNumFrames																																																																																																																								
100	100	7	42	mm	100	905	142																																																																																																																								
Frame#	Time	LFHD			RFHD			LBHD			RBHD			C7			T10			CLAV			STRN			RBAK			LSHO			LUPA			LELB			LFRM			LWRA			LWRB			LFIN			RSHO			RUPA			RELB			RFRM			RWRA			RWRB			RFIN			LASI			RASI			LPSI			RPSI			LTHI			LKNE			LTIB			LANK			LHEE			LTOE			RTHI			RKNE			RTIB			RANK			RHEE			RTOE			*39			*40			*41		
		X1	Y1	Z1	X2	Y2	Z2	X3	Y3	Z3	X4	Y4	Z4	X5	Y5	Z5	X6	Y6	Z6	X7	Y7	Z7	X8	Y8	Z8	X9	Y9	Z9	X10	Y10	Z10	X11	Y11	Z11	X12	Y12	Z12	X13	Y13	Z13	X14	Y14	Z14	X15	Y15	Z15	X16	Y16	Z16	X17	Y17	Z17	X18	Y18	Z18	X19	Y19	Z19	X20	Y20	Z20	X21	Y21	Z21	X22	Y22	Z22	X23	Y23	Z23	X24	Y24	Z24	X25	Y25	Z25	X26	Y26	Z26	X27	Y27	Z27	X28	Y28	Z28	X29	Y29	Z29	X30	Y30	Z30	X31	Y31	Z31	X32	Y32	Z32	X33	Y33	Z33	X34	Y34	Z34	X35	Y35	Z35	X36	Y36	Z36	X37	Y37	Z37	X38	Y38	Z38	X39	Y39	Z39	X40	Y40	Z40	X41	Y41	Z41	X42	Y42	Z42
																																																																																																																															
36	0.35	-498.46472	1734.66455	980.88446	-498.30862	1724.79102	1124.98694	-623.24365	1650.12854	976.28503	-635.11798	1637.98511	1120.44592	-671.22583	1516.02026	1053.34204	-728.98462	1246.4165	1070.03027	-530.54651	1447.41882	1042.89368	-483.01968	1273.62793	1058.99951	-730.03113	1350.27869	1126.68713	-600.53015	1486.03271	874.28864	-657.94049	1305.16003	779.08691	-696.15222	1176.3219	744.3045	-720.25757	1049.64978	710.24878	-698.19556	910.50616	719.33087	-742.22589	929.77039	688.69763	-739.35535	864.40771	674.4906	-598.35394	1492.97852	1232.59949	-580.41888	1318.61108	1342.354	-514.95605	1186.56287	1378.62708	-429.08618	1100.33411	1395.17798	-324.62503	1017.43054	1372.40833	-359.17117	991.60199	1409.25781	-294.10382	962.29285	1411.30237	-508.65924	977.02832	943.82422	-518.51178	964.88794	1201.48706	-718.65747	1026.31665	1017.20471	-726.4585	1031.86072	1130.57642	-489.73376	679.60425	885.12677	-441.05994	489.49536	926.50769	-448.11472	295.37491	940.74915	-382.22433	81.30913	975.06378	-400.5228	50.8471	1034.49463	-230.96532	78.45021	943.08569	-659.27374	673.61853	1262.61877	-715.64966	468.71494	1225.89343	-799.77478	300.21732	1238.0636	-859.03198	112.9519	1207.22424	-904.79333	62.88745	1154.71851	-714.72736	41.41263	1217.89429	-605.34607	1797.43433	1066.802	-2846.02563	1034.38867	3357.50977	NaN	NaN	NaN
37	0.36	-484.52954	1732.56555	980.97668	-484.33032	1722.52759	1125.14404	-609.28418	1648.0343	976.45947	-620.95709	1635.43237	1119.80322	-657.26733	1513.58569	1053.25647	-714.75757	1244.04419	1069.50073	-516.24609	1445.06519	1042.76489	-468.63083	1271.29797	1059.08264	-715.85736	1347.83557	1126.30908	-586.46216	1483.5083	874.10651	-645.5965	1303.03259	779.42413	-685.94751	1175.48096	745.16205	-715.1709	1050.75073	709.15656	-698.45679	910.83105	714.02429	-742.26868	932.57825	685.07343	-742.25037	867.57495	669.11957	-583.81714	1490.56555	1232.51196	-564.4433	1316.68921	1341.97034	-496.92368	1185.92273	1379.32642	-408.5665	1102.00793	1395.32019	-302.02155	1022.27429	1371.72961	-335.55051	995.31409	1408.74634	-269.64618	968.30194	1410.55847	-493.30081	973.64044	943.48993	-504.74292	962.68085	1202.07251	-703.97089	1023.43231	1016.73193	-712.86414	1028.91504	1129.59033	-477.30334	675.54138	885.24506	-426.6373	486.16302	926.63965	-424.55963	292.0976	939.37756	-348.54684	81.17788	972.18707	-365.41934	49.41904	1031.21948	-196.9967	84.97861	939.20563	-650.09302	673.02045	1263.1167	-709.06958	468.83969	1226.14233	-796.08252	301.75586	1237.8103	-857.86884	115.1441	1207.14514	-904.08771	65.80216	1154.47241	-714.57654	41.30515	1218.12183	-591.43805	1795.23083	1067.06873	-2845.27539	1034.45093	3360.32227	NaN	NaN	NaN
38	0.37	-470.34949	1730.27283	981.45105	-470.40375	1720.32483	1125.15393	-595.25146	1645.92944	976.35706	-607.1142	1633.35864	1120.47351	-643.29987	1511.23364	1052.99438	-700.32007	1241.68762	1068.73865	-501.95132	1442.8595	1042.45422	-454.16083	1269.25049	1059.02087	-701.72577	1345.65295	1126.12134	-572.36572	1481.0365	873.66498	-633.38672	1300.97559	779.57745	-675.12268	1174.49048	745.99554	-709.66418	1052.30017	708.26874	-697.65637	911.25238	709.20959	-741.34656	935.59454	681.76935	-744.51294	871.34961	664.06696	-569.30475	1488.11584	1232.03772	-548.7439	1314.83899	1341.75586	-479.55835	1185.24109	1379.89771	-388.7829	1103.64465	1395.27405	-280.24576	1027.1554	1370.92407	-312.71951	999.05591	1407.93274	-245.93011	974.17059	1409.47681	-477.61172	970.66895	943.117	-490.98697	960.51727	1202.56934	-688.96716	1020.62555	1016.04614	-698.82007	1025.99927	1128.44055	-465.1958	671.43256	884.67896	-411.66263	483.33389	926.10236	-402.18845	289.92352	937.45215	-318.00369	81.57828	969.0965	-333.51352	48.39476	1028.29517	-166.21056	91.05708	937.03961	-640.40912	672.44855	1263.64648	-701.63739	468.94321	1226.19153	-791.62921	303.35849	1237.77686	-856.51904	117.71868	1207.37781	-903.37256	69.33701	1154.66284	-714.37555	41.25773	1218.4021	-577.57941	1792.81665	1067.04663	-2845.30786	1034.38928	3360.34692	NaN	NaN	NaN
39	0.38	-456.36163	1728.45874	981.33136	-456.4635	1718.23267	1125.0708	-581.24103	1644.04956	976.13721	-593.0376	1631.10205	1119.92517	-629.28302	1508.96619	1052.49097	-685.92133	1239.38257	1067.90088	-487.72372	1440.74414	1041.77551	-439.56165	1267.36328	1058.6355	-687.38391	1343.14697	1124.85413	-558.3905	1478.76025	873.02692	-620.67145	1298.62183	779.78534	-663.94598	1173.29541	746.91589	-703.15527	1053.7439	707.1629	-696.21301	912.26306	704.52917	-739.51904	939.10986	678.91022	-746.14679	875.63495	659.34875	-554.93213	1485.88281	1231.39429	-533.33069	1313.03625	1341.06921	-462.92017	1184.50732	1380.41504	-369.84183	1105.23474	1395.05286	-259.42847	1031.9834	1369.93677	-290.83636	1002.83496	1406.93823	-223.42747	980.26471	1408.15796	-461.49402	968.21301	942.97913	-476.76779	958.61115	1202.98718	-673.73041	1018.00458	1015.20831	-684.67517	1023.33484	1127.1427	-453.74438	667.97937	883.41376	-396.21362	480.99036	925.33881	-381.02115	288.18301	935.21112	-290.80869	81.97633	965.93658	-306.30865	47.72951	1024.2511	-138.58557	95.92931	936.56714	-630.08423	671.9353	1264.13916	-693.20551	469.06055	1226.68591	-786.38593	305.1748	1237.90686	-854.84711	120.79794	1207.77686	-902.16962	73.43035	1155.01221	-714.13971	41.45355	1218.77649	-563.65802	1790.86902	1067.14697	-2845.97925	1034.62585	3357.38013	NaN	NaN	NaN
40	0.39	-442.54391	1726.92883	980.96295	-442.55322	1716.20923	1124.80457	-567.18127	1642.04407	975.65363	-578.98352	1628.78491	1118.97266	-615.22925	1506.86499	1051.76685	-671.3634	1237.14929	1066.85461	-473.37857	1438.95325	1041.02393	-424.84064	1265.74207	1058.08875	-673.112	1340.98792	1123.81909	-544.38306	1476.60962	872.14685	-607.84369	1296.29004	779.80829	-652.0979	1171.95911	747.95691	-695.85718	1055.35632	706.66357	-694.2663	913.82489	700.00012	-736.52362	942.50183	676.44464	-746.62866	880.22345	655.53876	-540.61743	1483.83594	1230.62244	-518.33929	1311.41248	1340.46948	-447.01636	1183.70496	1380.50159	-351.80557	1106.7749	1394.58801	-239.58667	1036.77686	1368.85913	-269.9874	1006.53168	1405.79492	-201.85081	986.17743	1406.69934	-445.11896	966.42047	943.02356	-462.30707	956.98724	1203.35266	-658.14471	1015.59924	1014.02094	-669.72968	1020.83325	1125.64502	-441.00284	665.74402	881.69678	-380.58884	478.96103	924.48999	-361.2825	286.82452	932.27045	-267.02658	82.08221	962.66156	-283.34839	46.53172	1019.95624	-114.28443	99.19228	937.49707	-619.23462	671.67108	1264.59741	-683.75867	469.25241	1227.23999	-780.49878	307.21759	1237.92004	-852.68353	124.30623	1208.40869	-900.84717	78.41991	1155.54712	-713.82513	41.49178	1219.1665	-549.68823	1788.71155	1067.32373	-2845.96094	1034.3269	3357.3728	NaN	NaN	NaN
41	0.4	-428.30374	1725.52283	980.79388	-428.66245	1714.28027	1124.59888	-553.13751	1640.47705	975.01611	-565.05615	1626.81348	1118.36072	-601.20294	1504.95117	1050.80786	-656.65118	1235.03979	1065.64746	-459.03537	1437.31787	1040.07251	-410.0332	1264.31885	1057.30554	-658.78516	1338.8064	1122.52991	-530.30841	1474.67578	871.11206	-594.47693	1293.93384	779.78326	-640.14307	1170.81091	748.57349	-687.59814	1057.02075	706.20251	-690.62329	915.52966	695.95184	-732.73981	946.57483	674.42023	-745.99042	885.45251	652.08136	-526.4917	1481.98132	1229.59741	-503.87701	1309.90173	1339.68774	-431.7728	1182.83228	1380.37488	-334.61877	1108.20264	1393.98291	-220.78427	1041.3396	1367.68726	-250.21896	1009.99316	1404.4668	-181.45905	991.88477	1405.12671	-428.32645	965.3006	943.14813	-447.50275	955.58447	1203.76477	-642.12097	1013.38721	1012.5332	-654.51447	1018.63849	1123.98511	-426.75378	664.65521	880.3028	-364.68707	477.32126	923.59338	-343.29132	285.36435	929.70764	-246.72697	81.48808	959.83881	-264.13907	44.8511	1016.03979	-93.84673	100.37769	938.92175	-607.6911	671.47028	1264.64343	-673.31488	469.50067	1227.86584	-773.77039	309.55414	1238.11121	-850.12128	128.33089	1208.99512	-898.94299	83.97723	1155.96582	-713.47797	41.47977	1219.5791	-535.81232	1786.94055	1067.44397	-2845.92505	1034.42688	3357.39502	NaN	NaN	NaN
42	0.41	-414.43442	1723.99414	980.28973	-414.82886	1712.43652	1124.1958	-538.93805	1639.0564	974.18878	-551.11206	1624.90515	1117.38757	-587.2027	1503.13123	1049.56677	-641.75189	1232.93774	1064.22473	-444.7207	1435.87537	1038.80457	-395.21594	1263.10596	1056.41174	-644.3559	1336.72363	1121.03308	-516.36859	1472.98706	869.92041	-581.3844	1292.04993	779.4856	-627.23474	1169.56274	749.71362	-678.11597	1058.53601	706.11536	-686.33667	917.88342	692.41699	-727.76093	950.53351	672.94299	-744.39264	890.73694	649.48712	-512.53522	1480.34009	1228.39709	-489.91647	1308.46948	1338.6687	-417.14609	1182.15369	1380.15601	-318.31485	1109.41602	1393.15405	-203.04169	1045.73389	1366.48279	-231.57764	1013.14368	1403.00159	-162.10718	997.14832	1403.45117	-411.655	964.73389	943.9187	-432.17099	954.06592	1204.20605	-625.78473	1011.41132	1010.79614	-638.92279	1016.64844	1122.14966	-409.21298	663.88507	879.31824	-348.5314	475.82297	922.61237	-326.71426	283.87671	926.77625	-230.1908	80.01814	956.93359	-248.98517	42.23054	1012.52362	-77.30738	99.35674	940.20251	-595.14984	671.51703	1264.80774	-662.00385	469.85989	1228.68994	-766.35956	312.39615	1238.60327	-847.14777	132.98878	1209.66687	-896.61279	90.07687	1156.34033	-713.13995	41.1646	1219.96069	-521.93616	1785.34277	1066.45764	-2846.07861	1034.48242	3357.53418	NaN	NaN	NaN
